
<svg width="22px" height="30px" viewBox="0 0 22 30" version="1.1" xmlns="http://www.w3.org/2000/svg" xmlns:xlink="http://www.w3.org/1999/xlink">
    <defs>
        <path d="M19.6875,25.078125 L19.6875,26.71875 C19.6875,27.3309961 19.2960937,27.8516016 18.75,28.044668 L18.75,28.59375 C18.75,29.3704102 18.1204102,30 17.34375,30 L12.65625,30 C11.8795898,30 11.25,29.3704102 11.25,28.59375 L11.25,28.044668 C10.7039062,27.8516016 10.3125,27.3309961 10.3125,26.71875 L10.3125,25.078125 C10.3125,24.6898242 10.6273242,24.375 11.015625,24.375 L18.984375,24.375 C19.3726758,24.375 19.6875,24.6898242 19.6875,25.078125 Z M11.25,10.3125 C11.25,8.24472656 12.9322266,6.5625 15,6.5625 C15.517793,6.5625 15.9375,6.14273437 15.9375,5.625 C15.9375,5.10726563 15.517793,4.6875 15,4.6875 C11.8983398,4.6875 9.375,7.21083984 9.375,10.3125 C9.375,10.8302344 9.79476563,11.25 10.3125,11.25 C10.8302344,11.25 11.25,10.8302344 11.25,10.3125 Z M15,2.8125 C19.1445703,2.8125 22.5,6.16722656 22.5,10.3125 C22.5,14.8594922 20.3095898,13.8560742 17.7550781,19.6875 L12.2449219,19.6875 C9.68660156,13.8474609 7.5,14.8751367 7.5,10.3125 C7.5,6.16787109 10.8547266,2.8125 15,2.8125 Z M15,0 C9.30498047,0 4.6875,4.61736328 4.6875,10.3125 C4.6875,16.2733008 7.71662109,15.6762305 9.99117187,21.6019922 C10.1991797,22.1439258 10.7218359,22.5 11.3022656,22.5 L18.6976758,22.5 C19.2781055,22.5 19.8007617,22.1438672 20.0087695,21.6019922 C22.2833789,15.6762305 25.3125,16.2733008 25.3125,10.3125 C25.3125,4.61736328 20.6950195,0 15,0 Z" id="path-1"></path>
    </defs>
    <g id="Final-Design---V1.2" stroke="none" stroke-width="1" fill="none" fill-rule="evenodd">
        <g id="Homepage" transform="translate(-604.000000, -1189.000000)">
            <rect fill="#FFFFFF" x="0" y="0" width="1440" height="4042"></rect>
            <g id="Regular/lightbulb" transform="translate(600.000000, 1189.000000)">
                <mask id="mask-2" fill="white">
                    <use xlink:href="#path-1"></use>
                </mask>
                <use id="Mask" fill="#000000" fill-rule="nonzero" xlink:href="#path-1"></use>
                <g id="Color/Purple" mask="url(#mask-2)" fill="#5822F6" fill-rule="evenodd">
                    <rect id="Purple" x="0" y="0" width="29.6452703" height="29.6452703"></rect>
                </g>
            </g>
        </g>
    </g>
</svg>