
<svg width="30px" height="24px" viewBox="0 0 30 24" version="1.1" xmlns="http://www.w3.org/2000/svg" xmlns:xlink="http://www.w3.org/1999/xlink">
    <defs>
        <path d="M23.671875,15 L17.578125,15 C17.1898242,15 16.875,14.6851758 16.875,14.296875 L16.875,12.890625 C16.875,12.5023242 17.1898242,12.1875 17.578125,12.1875 L23.671875,12.1875 C24.0601758,12.1875 24.375,12.5023242 24.375,12.890625 L24.375,14.296875 C24.375,14.6851758 24.0601758,15 23.671875,15 Z M24.375,18.984375 L24.375,17.578125 C24.375,17.1898242 24.0601758,16.875 23.671875,16.875 L17.578125,16.875 C17.1898242,16.875 16.875,17.1898242 16.875,17.578125 L16.875,18.984375 C16.875,19.3726758 17.1898242,19.6875 17.578125,19.6875 L23.671875,19.6875 C24.0601758,19.6875 24.375,19.3726758 24.375,18.984375 Z M30,6.5625 L30,23.4375 C30,24.9908203 28.7408203,26.25 27.1875,26.25 L2.8125,26.25 C1.25917969,26.25 0,24.9908203 0,23.4375 L0,6.5625 C0,5.00917969 1.25917969,3.75 2.8125,3.75 L27.1875,3.75 C28.7408203,3.75 30,5.00917969 30,6.5625 Z M27.1875,23.0859375 L27.1875,8.4375 L2.8125,8.4375 L2.8125,23.0859375 C2.8125,23.2801001 2.96989989,23.4375 3.1640625,23.4375 L26.8359375,23.4375 C27.0301001,23.4375 27.1875,23.2801001 27.1875,23.0859375 Z M10.3125,17.34375 C12.1246875,17.34375 13.59375,15.8746875 13.59375,14.0625 C13.59375,12.2503125 12.1246875,10.78125 10.3125,10.78125 C8.5003125,10.78125 7.03125,12.2503125 7.03125,14.0625 C7.03125,15.8746875 8.5003125,17.34375 10.3125,17.34375 Z M13.9978125,17.9806055 L13.2089063,17.7439453 C12.4109766,18.373125 11.4052148,18.75 10.3125,18.75 C9.21978516,18.75 8.21402344,18.373125 7.41603516,17.7439453 L6.62712891,17.9806055 C6.0323193,18.1590667 5.62499057,18.7065539 5.625,19.3275586 L5.625,21.796875 C5.625,22.1851758 5.93982422,22.5 6.328125,22.5 L14.296875,22.5 C14.6851758,22.5 15,22.1851758 15,21.796875 L15,19.3275586 C15.0000017,18.7065377 14.5926453,18.1590455 13.9978125,17.9806055 Z" id="path-1"></path>
    </defs>
    <g id="Final-Design---V1.2" stroke="none" stroke-width="1" fill="none" fill-rule="evenodd">
        <g id="Homepage" transform="translate(-260.000000, -1380.000000)">
            <rect fill="#FFFFFF" x="0" y="0" width="1440" height="4042"></rect>
            <g id="Regular/id-card" transform="translate(260.000000, 1377.000000)">
                <mask id="mask-2" fill="white">
                    <use xlink:href="#path-1"></use>
                </mask>
                <use id="Mask" fill="#000000" fill-rule="nonzero" xlink:href="#path-1"></use>
                <g id="Color/Purple" mask="url(#mask-2)" fill="#5822F6" fill-rule="evenodd">
                    <rect id="Purple" x="0" y="0" width="29.6452703" height="29.6452703"></rect>
                </g>
            </g>
        </g>
    </g>
</svg>