
<svg width="30px" height="22px" viewBox="0 0 30 22" version="1.1" xmlns="http://www.w3.org/2000/svg" xmlns:xlink="http://www.w3.org/1999/xlink">
    <defs>
        <path d="M28.875,7.50837055 L26.625,7.50837055 C26.2918594,7.50837055 25.9926562,7.65309947 25.7866875,7.88295203 L24.6839063,7.88295203 L23.2246875,6.18328859 L23.2171875,6.17486051 C22.2915973,5.11785967 20.9541497,4.51158501 19.5482812,4.51171877 L17.36625,4.51171877 C16.5342187,4.51171877 15.7303125,4.74302283 15.0370312,5.16770458 C14.2654688,4.7425546 13.3907812,4.51171877 12.4978125,4.51171877 L10.9926562,4.51171877 C9.63782813,4.51171877 8.29270312,5.03702247 7.28015625,6.04750281 L5.443125,7.88295203 L4.2133125,7.88295203 C4.00734375,7.65309947 3.70814062,7.50837055 3.375,7.50837055 L1.125,7.50837055 C0.503671875,7.50837055 0,8.0114803 0,8.63211497 L0,19.8695592 C0,20.4901938 0.503671875,20.9933036 1.125,20.9933036 L3.375,20.9933036 C3.86479687,20.9933036 4.28128125,20.680528 4.43573438,20.2441406 L5.31703125,20.2441406 L8.8490625,23.4079494 C10.0463438,24.6464094 11.6580469,25.4882812 13.37625,25.4882812 C14.1445312,25.4882812 14.889375,25.3080139 15.5371875,24.9765093 C16.7060625,24.9997334 17.9325469,24.4910517 18.7748438,23.5058088 C19.6975313,23.2445851 20.5327969,22.6898767 21.1523438,21.8857439 C22.1362031,21.6796773 23.0614687,21.1135442 23.6564062,20.2441406 L25.5642656,20.2441406 C25.7187187,20.680528 26.1352031,20.9933036 26.625,20.9933036 L28.875,20.9933036 C29.4963281,20.9933036 30,20.4901938 30,19.8695592 L30,8.63211497 C30,8.0114803 29.4963281,7.50837055 28.875,7.50837055 Z M2.25,19.4949777 C1.83576562,19.4949777 1.5,19.1595868 1.5,18.7458147 C1.5,18.3320427 1.83576562,17.9966518 2.25,17.9966518 C2.66423438,17.9966518 3,18.3320427 3,18.7458147 C3,19.1595868 2.66423438,19.4949777 2.25,19.4949777 Z M21.586875,19.225279 C20.8673438,19.8946093 19.8579375,19.7556864 19.7142188,19.5998605 C19.7805,20.2264417 18.8584219,21.5216039 17.4135938,21.4203265 C17.1538594,22.287623 16.090875,23.0041506 15,22.6260106 C14.5832813,23.0422642 13.9471875,23.2407924 13.37625,23.2407924 C12.2067188,23.2407924 11.1370313,22.5599906 10.4165625,21.7935032 L6.605625,18.3796613 C6.330567,18.133046 5.97398563,17.9966424 5.604375,17.9966518 L4.5,17.9966518 L4.5,10.1304409 L5.75390625,10.1304409 C6.15140625,10.1304409 6.53296875,9.97264842 6.81421875,9.69171231 L8.87109375,7.63713294 C9.43373679,7.07502688 10.1968944,6.75922406 10.9926562,6.75920761 L12.4978125,6.75920761 C12.7696875,6.75920761 13.0373437,6.79619753 13.2946875,6.86689978 L11.2664062,9.2309771 C10.1620312,10.5176645 10.1489062,12.397127 11.2354687,13.6997341 C12.7536562,15.5195445 15.5188125,15.5364943 17.0704687,13.792443 L18.2882813,12.3840167 L21.6839062,16.8729074 C22.3139063,17.5565186 22.1971875,18.6582563 21.586875,19.225279 Z M25.5,17.9966518 L24.3535313,17.9966518 C24.3584063,17.0479774 24.0348281,16.1551156 23.4271875,15.4494978 L19.7671875,10.6117781 C19.9785938,10.1664943 19.876875,9.61773247 19.4854688,9.27967269 C19.0132031,8.87273675 18.3028125,8.92854939 17.8982813,9.39579295 L15.384375,12.3044181 C14.7361875,13.0259556 13.5926719,13.0135476 12.96375,12.260873 C12.5827232,11.8063121 12.5872865,11.1430051 12.9745312,10.6937178 L15.6895312,7.52944076 C16.1090135,7.04043135 16.7215561,6.7590481 17.36625,6.75920761 L19.5482813,6.75920761 C20.3034375,6.75920761 21.0220313,7.08415704 21.5203125,7.65071151 L23.649375,10.1304409 L25.5,10.1304409 L25.5,17.9966518 Z M27.75,19.4949777 C27.3357656,19.4949777 27,19.1595868 27,18.7458147 C27,18.3320427 27.3357656,17.9966518 27.75,17.9966518 C28.1642344,17.9966518 28.5,18.3320427 28.5,18.7458147 C28.5,19.1595868 28.1642344,19.4949777 27.75,19.4949777 Z" id="path-1"></path>
    </defs>
    <g id="Final-Design---V1.2" stroke="none" stroke-width="1" fill="none" fill-rule="evenodd">
        <g id="Homepage" transform="translate(-960.000000, -1186.000000)">
            <rect fill="#FFFFFF" x="0" y="0" width="1440" height="4042"></rect>
            <g id="Regular/handshake" transform="translate(960.000000, 1182.000000)">
                <mask id="mask-2" fill="white">
                    <use xlink:href="#path-1"></use>
                </mask>
                <use id="Mask" fill="#000000" fill-rule="nonzero" xlink:href="#path-1"></use>
                <g id="Color/Purple" mask="url(#mask-2)" fill="#5822F6" fill-rule="evenodd">
                    <rect id="Purple" x="0" y="0" width="29.6452703" height="29.6452703"></rect>
                </g>
            </g>
        </g>
    </g>
</svg>