
<svg width="30px" height="30px" viewBox="0 0 30 30" version="1.1" xmlns="http://www.w3.org/2000/svg" xmlns:xlink="http://www.w3.org/1999/xlink">
    <defs>
        <path d="M27.1875,0 L8.4375,0 C6.88417969,0 5.625,1.25917969 5.625,2.8125 L5.625,5.625 L2.8125,5.625 C1.25917969,5.625 0,6.88417969 0,8.4375 L0,27.1875 C0,28.7408203 1.25917969,30 2.8125,30 L21.5625,30 C23.1158203,30 24.375,28.7408203 24.375,27.1875 L24.375,24.375 L27.1875,24.375 C28.7408203,24.375 30,23.1158203 30,21.5625 L30,2.8125 C30,1.25917969 28.7408203,0 27.1875,0 Z M21.2109375,27.1875 L3.1640625,27.1875 C2.96989989,27.1875 2.8125,27.0301001 2.8125,26.8359375 L2.8125,8.7890625 C2.8125,8.59489989 2.96989989,8.4375 3.1640625,8.4375 L5.625,8.4375 L5.625,21.5625 C5.625,23.1158203 6.88417969,24.375 8.4375,24.375 L21.5625,24.375 L21.5625,26.8359375 C21.5625,27.0301001 21.4051001,27.1875 21.2109375,27.1875 Z M26.8359375,21.5625 L8.7890625,21.5625 C8.59489989,21.5625 8.4375,21.4051001 8.4375,21.2109375 L8.4375,3.1640625 C8.4375,2.96989989 8.59489989,2.8125 8.7890625,2.8125 L26.8359375,2.8125 C27.0301001,2.8125 27.1875,2.96989989 27.1875,3.1640625 L27.1875,21.2109375 C27.1875,21.4051001 27.0301001,21.5625 26.8359375,21.5625 Z" id="path-1"></path>
    </defs>
    <g id="Final-Design---V1.2" stroke="none" stroke-width="1" fill="none" fill-rule="evenodd">
        <g id="Homepage" transform="translate(-260.000000, -1189.000000)">
            <rect fill="#FFFFFF" x="0" y="0" width="1440" height="4042"></rect>
            <g id="Regular/clone" transform="translate(260.000000, 1189.000000)">
                <mask id="mask-2" fill="white">
                    <use xlink:href="#path-1"></use>
                </mask>
                <use id="Mask" fill="#000000" fill-rule="nonzero" xlink:href="#path-1"></use>
                <g id="Color/Purple" mask="url(#mask-2)" fill="#5822F6" fill-rule="evenodd">
                    <rect id="Purple" x="0" y="0" width="29.6452703" height="29.6452703"></rect>
                </g>
            </g>
        </g>
    </g>
</svg>