
<svg width="30px" height="24px" viewBox="0 0 30 24" version="1.1" xmlns="http://www.w3.org/2000/svg" xmlns:xlink="http://www.w3.org/1999/xlink">
    <defs>
        <path d="M29.9222368,24.778915 C29.6398932,25.8856408 28.6425499,26.6601562 27.49979,26.6601562 C25.8203116,26.6601562 24.035677,26.1401341 22.1820841,25.1123746 C19.5445853,25.7175575 16.4971387,25.5224061 13.9550045,24.4129214 C16.0979202,24.260975 18.1404713,23.7706238 20.013908,22.9187036 C20.8640118,22.8551974 21.7156781,22.6938292 22.5467714,22.419347 C23.6668751,23.1394658 25.5553638,24.1615513 27.49979,24.1615513 C25.8331241,23.2529441 25.2488015,22.1336211 25.0956765,21.1162725 C26.4208322,20.1351536 27.49979,18.6601959 27.49979,16.8928494 C27.49979,16.3465398 27.3756755,15.7718086 27.1330714,15.2028034 C27.5187483,13.8530362 27.5839046,12.5899915 27.4031234,11.3540149 C29.078331,12.93964 29.9997889,14.9524224 29.9997889,16.8928494 C29.9997889,18.6571247 29.3272371,20.2788234 28.178123,21.6359823 C28.3163001,21.7420689 28.4866646,21.8533609 28.696977,21.9679844 C29.7001536,22.5149707 30.2046325,23.6721892 29.9222368,24.778915 Z M12.5001093,5.83844866 C6.09729971,5.83844866 2.500218,9.63200762 2.500218,12.652821 C2.500218,14.6410858 3.794957,16.3003677 5.38516461,17.4041264 C5.20146678,18.5486957 4.5002171,19.8079405 2.500218,20.8300781 C4.83355028,20.8300781 7.09969509,19.6802514 8.44391323,18.8700787 C9.77307929,19.2816198 11.1461516,19.4671933 12.5001093,19.4671933 C18.9061481,19.4671933 22.5000006,15.6754562 22.5000006,12.652821 C22.5000006,9.63226789 18.9032835,5.83844866 12.5001093,5.83844866 Z M12.5001093,3.33984375 C20.3225537,3.33984375 24.9999995,8.23429844 24.9999995,12.652821 C24.9999995,13.8367953 24.6611455,15.0678267 24.0199999,16.2128645 C23.4013544,17.3177684 22.5335943,18.3103392 21.4406782,19.1629881 C20.3160433,20.0404669 19.0032834,20.7269586 17.5389612,21.2033593 C15.984014,21.7092747 14.2887022,21.9657461 12.5001093,21.9657461 C11.2267245,21.9657461 9.98240211,21.8258763 8.78698599,21.5491037 C6.57870574,22.7306836 4.46797753,23.328683 2.500218,23.328683 C1.34501019,23.328683 0.34021898,22.5376143 0.0697503521,21.4151161 C-0.200770359,20.2926699 0.333500233,19.1310788 1.36198935,18.6054348 C1.76110375,18.4014862 2.05594737,18.202691 2.27443685,18.0175339 C1.88938495,17.610001 1.54777052,17.1782109 1.25183315,16.7242977 C0.421364776,15.4505297 0.000271216936,14.0806696 0.000271216936,12.652821 C0.000271216936,8.24642709 4.66188369,3.33984375 12.5001093,3.33984375 Z" id="path-1"></path>
    </defs>
    <g id="Final-Design---V1.2" stroke="none" stroke-width="1" fill="none" fill-rule="evenodd">
        <g id="Homepage" transform="translate(-600.000000, -1380.000000)">
            <rect fill="#FFFFFF" x="0" y="0" width="1440" height="4042"></rect>
            <g id="Regular/comments" transform="translate(600.000000, 1377.000000)">
                <mask id="mask-2" fill="white">
                    <use xlink:href="#path-1"></use>
                </mask>
                <use id="Mask" fill="#000000" fill-rule="nonzero" xlink:href="#path-1"></use>
                <g id="Color/Purple" mask="url(#mask-2)" fill="#5822F6" fill-rule="evenodd">
                    <rect id="Purple" x="0" y="0" width="29.6452703" height="29.6452703"></rect>
                </g>
            </g>
        </g>
    </g>
</svg>