
<svg width="24px" height="30px" viewBox="0 0 24 30" version="1.1" xmlns="http://www.w3.org/2000/svg" xmlns:xlink="http://www.w3.org/1999/xlink">
    <defs>
        <path d="M15,7.5 C17.0710547,7.5 18.75,9.17894531 18.75,11.25 C18.75,13.3210547 17.0710547,15 15,15 C12.9289453,15 11.25,13.3210547 11.25,11.25 C11.25,9.17894531 12.9289453,7.5 15,7.5 Z M18.5851758,16.0457227 L17.5267383,15.7433203 C16.7795508,16.1650781 15.9174609,16.40625 15,16.40625 C14.0825391,16.40625 13.2204492,16.1650781 12.4733203,15.7433203 L11.4148828,16.0457227 C10.2074414,16.3906641 9.375,17.4942773 9.375,18.75 L9.375,22.96875 C9.375,23.7454102 10.0045898,24.375 10.78125,24.375 L19.21875,24.375 C19.9954102,24.375 20.625,23.7454102 20.625,22.96875 L20.625,18.75 C20.625,17.4942773 19.7925586,16.3906641 18.5851758,16.0457227 Z M3.75,2.8125 L3.75,27.1875 C3.75,28.7408203 5.00917969,30 6.5625,30 L23.4375,30 C24.9908203,30 26.25,28.7408203 26.25,27.1875 L26.25,2.8125 C26.25,1.25917969 24.9908203,0 23.4375,0 L6.5625,0 C5.00917969,0 3.75,1.25917969 3.75,2.8125 Z M23.4375,4.6875 L23.4375,26.8359375 C23.4375,27.0301001 23.2801001,27.1875 23.0859375,27.1875 L6.9140625,27.1875 C6.71989989,27.1875 6.5625,27.0301001 6.5625,26.8359375 L6.5625,4.6875 L23.4375,4.6875 Z" id="path-1"></path>
    </defs>
    <g id="Final-Design---V1.2" stroke="none" stroke-width="1" fill="none" fill-rule="evenodd">
        <g id="Homepage" transform="translate(-955.000000, -1377.000000)">
            <rect fill="#FFFFFF" x="0" y="0" width="1440" height="4042"></rect>
            <g id="Regular/id-badge" transform="translate(952.000000, 1377.000000)">
                <mask id="mask-2" fill="white">
                    <use xlink:href="#path-1"></use>
                </mask>
                <use id="Mask" fill="#000000" fill-rule="nonzero" xlink:href="#path-1"></use>
                <g id="Color/Purple" mask="url(#mask-2)" fill="#5822F6" fill-rule="evenodd">
                    <rect id="Purple" x="0" y="0" width="29.6452703" height="29.6452703"></rect>
                </g>
            </g>
        </g>
    </g>
</svg>